<?xml version="1.0" encoding="UTF-8"?>
<svg xmlns="http://www.w3.org/2000/svg" viewBox="0 0 640 480" width="320" height="240" preserveAspectRatio="xMidYMid meet" fill="none" role="img" aria-labelledby="exo-i-no-data-t" class="exo-illustration exo-i-no-data" data-exo-illustration="no-data" data-exo-size="scene">
  <title id="exo-i-no-data-t">No data yet</title>
  <desc>The companion stands at an empty easel, brush in hand, giving the air a stroke or two. A few sparks glimmer across the canvas - still nothing actually painted.</desc>
  <style>
@media (prefers-reduced-motion: no-preference) {
  @keyframes exo-i-no-data-k0 {
    0%,100% { transform: translateY(0); }
    50% { transform: translateY(-1.5px); }
  }
  @keyframes exo-i-no-data-k1 {
    0%,92%,100% { transform: scaleY(1); }
    95% { transform: scaleY(0.08); }
    97% { transform: scaleY(1); }
  }
  @keyframes exo-i-no-data-k2 {
    0%,100% { transform: rotate(-5deg); }
    50% { transform: rotate(6deg); }
  }
  @keyframes exo-i-no-data-k3 {
    0%,100% { opacity: 0; }
    50% { opacity: 1; }
  }
  @keyframes exo-i-no-data-k4 {
    0%,100% { opacity: 0; }
    50% { opacity: 1; }
  }
  @keyframes exo-i-no-data-k5 {
    0%,100% { opacity: 0; }
    50% { opacity: 1; }
  }
  @keyframes exo-i-no-data-k6 {
    0%,100% { opacity: 0; }
    50% { opacity: 1; }
  }
  @keyframes exo-i-no-data-k7 {
    0%,100% { opacity: 0; }
    50% { opacity: 1; }
  }
  .exo-i-no-data .exo-figure { animation: exo-i-no-data-k0 4.4s cubic-bezier(0.4, 0, 0.2, 1) 0s infinite both; transform-box: fill-box; transform-origin: center; }
  .exo-i-no-data .exo-eyes { animation: exo-i-no-data-k1 5.6s cubic-bezier(0.4, 0, 0.2, 1) 0s infinite both; transform-box: fill-box; transform-origin: center; }
  .exo-i-no-data .exo-brush { animation: exo-i-no-data-k2 1.6s cubic-bezier(0.4, 0, 0.2, 1) 0s infinite both; transform-box: fill-box; transform-origin: 281.2653718043597px 346.4019237886467px; transform-box: view-box; }
  .exo-i-no-data .exo-spark-0 { animation: exo-i-no-data-k3 3.4s cubic-bezier(0.4, 0, 0.2, 1) 0.2s infinite both; transform-box: fill-box; transform-origin: center; }
  .exo-i-no-data .exo-spark-1 { animation: exo-i-no-data-k4 4.2s cubic-bezier(0.4, 0, 0.2, 1) 0.9s infinite both; transform-box: fill-box; transform-origin: center; }
  .exo-i-no-data .exo-spark-2 { animation: exo-i-no-data-k5 3.8s cubic-bezier(0.4, 0, 0.2, 1) 1.6s infinite both; transform-box: fill-box; transform-origin: center; }
  .exo-i-no-data .exo-spark-3 { animation: exo-i-no-data-k6 4.6s cubic-bezier(0.4, 0, 0.2, 1) 0.5s infinite both; transform-box: fill-box; transform-origin: center; }
  .exo-i-no-data .exo-spark-4 { animation: exo-i-no-data-k7 3.6s cubic-bezier(0.4, 0, 0.2, 1) 2.1s infinite both; transform-box: fill-box; transform-origin: center; }
}
</style>
  <g stroke-linecap="round" stroke-linejoin="round">
    <path d="M40 400 L600 400" stroke="var(--exo-illustration-outline, #0d2123)" stroke-width="2" opacity="0.1"/>
    <g>
      <g class="exo-easel">
        <path d="M440 320 L350 400" fill="none" stroke="var(--exo-illustration-outline, #0d2123)" stroke-width="3" stroke-linecap="round"/>
        <path d="M440 320 L530 400" fill="none" stroke="var(--exo-illustration-outline, #0d2123)" stroke-width="3" stroke-linecap="round"/>
        <rect x="330" y="315" width="220" height="8.75" rx="3.75" fill="var(--exo-illustration-surface, #ecf5f6)" stroke="var(--exo-illustration-outline, #0d2123)" stroke-width="3"/>
        <rect x="337.5" y="190" width="205" height="125" rx="12.5" fill="var(--exo-illustration-surface, #ecf5f6)" stroke="var(--exo-illustration-outline, #0d2123)" stroke-width="3"/>
        <path d="M431.25 190 q0 -22.75 8.75 -22.75 q8.75 0 8.75 22.75" fill="none" stroke="var(--exo-illustration-outline, #0d2123)" stroke-width="3"/>
      </g>
    </g>
    <g class="exo-sparks">
      <path d="M411.3 206.2 l2.4000000000000004 6.4 l6.4 2.4000000000000004 l-6.4 2.4000000000000004 l-2.4000000000000004 6.4 l-2.4000000000000004 -6.4 l-6.4 -2.4000000000000004 l6.4 -2.4000000000000004 Z" fill="var(--exo-illustration-primary, #3a8388)" class="exo-spark-0"/>
      <path d="M497.4 230.9 l1.7999999999999998 4.8 l4.8 1.7999999999999998 l-4.8 1.7999999999999998 l-1.7999999999999998 4.8 l-1.7999999999999998 -4.8 l-4.8 -1.7999999999999998 l4.8 -1.7999999999999998 Z" fill="var(--exo-illustration-primary, #3a8388)" class="exo-spark-1"/>
      <path d="M435.9 282.3 l2.0999999999999996 5.6 l5.6 2.0999999999999996 l-5.6 2.0999999999999996 l-2.0999999999999996 5.6 l-2.0999999999999996 -5.6 l-5.6 -2.0999999999999996 l5.6 -2.0999999999999996 Z" fill="var(--exo-illustration-primary, #3a8388)" class="exo-spark-2"/>
      <path d="M507.65 266.45 l1.6500000000000001 4.4 l4.4 1.6500000000000001 l-4.4 1.6500000000000001 l-1.6500000000000001 4.4 l-1.6500000000000001 -4.4 l-4.4 -1.6500000000000001 l4.4 -1.6500000000000001 Z" fill="var(--exo-illustration-primary, #3a8388)" class="exo-spark-3"/>
      <path d="M452.3 244.5 l1.5 4 l4 1.5 l-4 1.5 l-1.5 4 l-1.5 -4 l-4 -1.5 l4 -1.5 Z" fill="var(--exo-illustration-primary, #3a8388)" class="exo-spark-4"/>
    </g>
    <g class="exo-companion" transform="matrix(1 0 0 1 175 400)">
      <ellipse cx="0" cy="2" rx="98" ry="11" fill="var(--exo-illustration-outline, #0d2123)" opacity="0.08" class="exo-shadow"/>
      <g class="exo-figure">
        <g class="exo-feet">
          <rect x="-44" y="-22" width="30" height="20" rx="10" fill="var(--exo-illustration-primary, #3a8388)" stroke="var(--exo-illustration-outline, #0d2123)" stroke-width="3"/>
          <rect x="12" y="-22" width="30" height="20" rx="10" fill="var(--exo-illustration-primary, #3a8388)" stroke="var(--exo-illustration-outline, #0d2123)" stroke-width="3"/>
        </g>
        <rect x="50" y="-206" width="42" height="42" rx="13" fill="var(--exo-illustration-surface, #ecf5f6)" stroke="var(--exo-illustration-outline, #0d2123)" stroke-width="3" class="exo-dock"/>
        <rect x="-76" y="-180" width="152" height="162" rx="38" fill="var(--exo-illustration-primary, #3a8388)" stroke="var(--exo-illustration-outline, #0d2123)" stroke-width="3" class="exo-body"/>
        <g class="exo-eyes" transform="translate(6 -2)">
          <rect x="-38" y="-124" width="22" height="36" rx="11" fill="var(--exo-illustration-outline, #0d2123)"/>
          <rect x="16" y="-124" width="22" height="36" rx="11" fill="var(--exo-illustration-outline, #0d2123)"/>
          <circle cx="-21" cy="-115" r="4" fill="var(--exo-illustration-highlight, #ffffff)"/>
          <circle cx="33" cy="-115" r="4" fill="var(--exo-illustration-highlight, #ffffff)"/>
        </g>
        <g class="exo-arm-right" transform="rotate(30 72 -81)">
          <rect x="72" y="-90" width="36" height="17" rx="8" fill="var(--exo-illustration-primary, #3a8388)" stroke="var(--exo-illustration-outline, #0d2123)" stroke-width="3"/>
          <circle cx="116" cy="-81" r="13" fill="var(--exo-illustration-primary, #3a8388)" stroke="var(--exo-illustration-outline, #0d2123)" stroke-width="3"/>
        </g>
      </g>
    </g>
    <g class="exo-brush">
      <g transform="rotate(-8.879238407108822 281.2653718043597 346.4019237886467)">
        <g transform="translate(276.9708405543597 260.5112987886467) scale(0.1796875 0.1796875)">
          <path d="M23.9,478c8.4,7.6,19.3,11.5,30.6,11,.2,0,.3,0,.5,0,11.1-.6,21.4-5.4,29.1-13.5l227.9-242c-26-5.2-48.8-20.5-64.4-43.9-4.8-7.1-8.6-14.7-11.7-22.6L20.1,417.9c-7.3,8.4-10.9,19.2-10.4,30.4s5.6,22.1,14.2,29.8Z" fill="var(--exo-illustration-outline, #0d2123)"/>
          <path d="M332.9,205.6c1.2,0,2.4,0,3.6-.1,20.2-1.1,40-9.2,55.7-21.8,19-15.2,25.8-36.1,39.3-55.4,17-24.3,44.3-37.1,71.7-46.3-18.4-41.9-79.4-56.2-118.8-55.1-1.4,0-2.8,0-4.3.2-44.6,2.3-96.2,21.7-115.4,66.7-21.1,49.4,11.4,112.5,68.1,111.9Z" fill="var(--exo-illustration-outline, #0d2123)"/>
        </g>
      </g>
    </g>
  </g>
</svg>
